<svg width="52" height="51" fill="none" xmlns="http://www.w3.org/2000/svg"><path d="M44.542 37.437l-3.12 3.009-1.868-1.81a.908.908 0 00-1.251 0 .832.832 0 000 1.206l2.494 2.405c.165.161.39.252.626.252.234 0 .46-.09.625-.252l3.78-3.612a.832.832 0 00.284-.844.866.866 0 00-.65-.627.902.902 0 00-.876.273h-.044z" fill="#FFBB01"/><path d="M45.83 31.53v-2.634c0-.47-.395-.85-.882-.85h-2.644v-.85c0-1.408 1.184-2.55 2.644-2.55.487 0 .882-.38.882-.85 0-.469-.395-.85-.882-.85-2.433 0-4.406 1.903-4.406 4.25v.85h-2.644c-.487 0-.882.38-.882.85v2.635c-4.52 1.997-6.986 6.761-5.926 11.445C32.15 47.66 36.45 51 41.423 51c4.972 0 9.272-3.34 10.333-8.024 1.06-4.684-1.407-9.448-5.926-11.445zm-3.526 17.763v-.85c0-.47-.394-.85-.881-.85s-.881.38-.881.85v.85c-4.203-.389-7.53-3.596-7.932-7.649h.88c.488 0 .882-.38.882-.85s-.394-.85-.881-.85h-.881c.332-3.174 2.48-5.901 5.56-7.062a.852.852 0 00.565-.79v-2.346h5.288v2.345c0 .35.225.665.564.79 3.116 1.137 5.302 3.869 5.65 7.063h-.882c-.487 0-.881.38-.881.85s.394.85.88.85h.882c-.402 4.053-3.729 7.26-7.932 7.649z" fill="#FFBB01"/><path d="M28.388 44.194H4.407c-1.46 0-2.644-1.142-2.644-2.55V14.448h45.83v15.689c0 .469.394.85.88.85.487 0 .882-.381.882-.85V8.498c0-2.347-1.973-4.25-4.407-4.25h-1.763V3.4c0-.469-.394-.85-.88-.85-.488 0-.882.381-.882.85v3.4c0 .939-.79 1.7-1.763 1.7-.973 0-1.763-.761-1.763-1.7v-3.4c0-.938.79-1.7 1.763-1.7.487 0 .881-.38.881-.85 0-.468-.394-.849-.881-.849-1.947 0-3.525 1.522-3.525 3.4v.85h-7.932V3.4c0-.47-.395-.85-.882-.85-.486 0-.881.38-.881.85v3.399c0 .939-.79 1.7-1.763 1.7-.973 0-1.762-.761-1.762-1.7v-3.4c0-.938.789-1.7 1.762-1.7.487 0 .882-.38.882-.85 0-.468-.395-.849-.882-.849-1.947 0-3.525 1.522-3.525 3.4v.85H13.22V3.4c0-.47-.395-.85-.881-.85-.487 0-.882.38-.882.85v3.399c0 .939-.789 1.7-1.762 1.7-.974 0-1.763-.761-1.763-1.7v-3.4c0-.938.79-1.7 1.763-1.7.486 0 .881-.38.881-.85 0-.468-.395-.849-.881-.849-1.947 0-3.526 1.522-3.526 3.4v.85H4.407C1.973 4.25 0 6.151 0 8.498v33.145c0 2.347 1.973 4.25 4.407 4.25h20.27c4.627 0 4.627 0 4.627-.85a.835.835 0 00-.255-.604.899.899 0 00-.661-.246zM4.407 5.949h1.762v.85c0 1.877 1.579 3.4 3.526 3.4 1.947 0 3.525-1.523 3.525-3.4v-.85h7.932v.85c0 1.877 1.578 3.4 3.525 3.4 1.947 0 3.526-1.523 3.526-3.4v-.85h7.932v.85c0 1.877 1.578 3.4 3.525 3.4 1.947 0 3.525-1.523 3.525-3.4v-.85h1.763c1.46 0 2.644 1.142 2.644 2.55v4.25H1.762v-4.25c0-1.408 1.185-2.55 2.645-2.55z" fill="#FFBB01"/><path d="M15.864 17.847c0-.469-.394-.85-.881-.85h-7.05c-.487 0-.882.381-.882.85v6.8c0 .469.395.85.881.85h7.05c.488 0 .882-.381.882-.85v-6.8zm-1.762 5.95H8.814v-5.1h5.288v5.1zM14.983 30.596c.487 0 .881-.381.881-.85 0-.47-.394-.85-.881-.85h-7.05c-.487 0-.882.38-.882.85v6.799c0 .469.395.85.881.85h7.05c.488 0 .882-.381.882-.85v-3.4c0-.47-.394-.85-.881-.85s-.881.38-.881.85v2.55H8.814v-5.1h6.169zM20.271 28.896c-.487 0-.881.38-.881.85v6.799c0 .469.394.85.881.85h7.05c.487 0 .882-.381.882-.85v-6.8c0-.469-.395-.85-.881-.85H20.27zm6.17 6.799h-5.289v-5.1h5.288v5.1zM39.66 23.797c.487 0 .882-.381.882-.85v-5.1c0-.469-.395-.85-.882-.85h-7.05c-.487 0-.882.381-.882.85v6.8c0 .469.395.85.882.85.486 0 .88-.381.88-.85v-5.95h5.289v4.25c0 .469.395.85.881.85zM27.947 17.244a.898.898 0 00-.625-.251c-.235 0-.46.09-.626.251l-2.9 2.805-2.9-2.805a.908.908 0 00-1.25 0 .832.832 0 000 1.207l2.907 2.796-2.908 2.796a.834.834 0 00-.26.604c0 .226.093.444.26.603.166.16.391.251.626.251s.46-.09.626-.251l2.9-2.805 2.899 2.805c.165.16.39.251.626.251.235 0 .46-.09.625-.251a.834.834 0 00.261-.604.834.834 0 00-.26-.603l-2.909-2.796 2.908-2.796a.834.834 0 00.261-.604.834.834 0 00-.26-.603z" fill="#FFBB01"/></svg>