<svg width="20" height="20" fill="none" xmlns="http://www.w3.org/2000/svg"><path d="M2.93 20h6.523v-7.11H7.11v-2.343h2.344v-2.93a2.933 2.933 0 012.93-2.93h2.93v2.344h-2.344c-.646 0-1.172.526-1.172 1.172v2.344h3.41l-.39 2.344h-3.02V20h5.273A2.933 2.933 0 0020 17.07V2.93A2.933 2.933 0 0017.07 0H2.93A2.933 2.933 0 000 2.93v14.14A2.933 2.933 0 002.93 20zM1.172 2.93c0-.97.788-1.758 1.758-1.758h14.14c.97 0 1.758.788 1.758 1.758v14.14a1.76 1.76 0 01-1.758 1.758H12.97v-4.765h2.84l.781-4.688H12.97V8.203h3.515V3.516h-4.101A4.106 4.106 0 008.28 7.617v1.758H5.937v4.688h2.344v4.765H2.93a1.76 1.76 0 01-1.758-1.758V2.93z" fill="#fff"/></svg>