<svg width="20" height="20" fill="none" xmlns="http://www.w3.org/2000/svg"><path d="M10 0C4.504 0 0 4.543 0 10.04 0 15.502 4.463 20 10 20c5.53 0 10-4.49 10-9.96C20 4.542 15.496 0 10 0zm1.758 18.652a8.681 8.681 0 01-1.758.176 8.681 8.681 0 01-1.758-.176V15.91c0-.656.176-.89.41-1.207.12-.136.192-.259.727-1.066l-.902-.14c-2.32-.34-3.235-1.548-3.598-2.485-.469-1.254-.223-2.825.621-3.82a.707.707 0 00.14-.68c-.175-.54-.152-1.395-.035-1.723.622.089 1.26.534 1.794.856.245.143.374.105.492.117.428-.09 1.096-.305 2.12-.305.634 0 1.302.094 1.958.281.117-.003.306.097.633-.093.557-.34 1.174-.77 1.793-.856.117.328.14 1.184-.036 1.723a.706.706 0 00.141.68c.844.996 1.09 2.566.621 3.82-.363.937-1.277 2.144-3.598 2.484l-.902.14c.553.835.612.936.727 1.067.234.317.41.55.41 1.207v2.742zm1.172-.34V15.91c0-.668-.141-1.113-.329-1.441 1.782-.48 3.047-1.535 3.61-3.047.598-1.594.328-3.492-.668-4.805.176-.785.176-2.039-.246-2.625a.915.915 0 00-.774-.398h-.011c-.909.049-1.624.506-2.39.972a8.095 8.095 0 00-4.23 0c-.808-.486-1.517-.924-2.45-.972-.294 0-.551.14-.739.398-.422.586-.422 1.84-.246 2.625-.996 1.313-1.266 3.223-.668 4.805.562 1.511 1.828 2.566 3.61 3.047-.146.254-.26.582-.306 1.027-.36.123-.672.164-.962.079-.306-.09-.545-.295-.752-.644-.466-.781-1.258-1.42-2.16-1.337l.102 1.168c.418-.039.834.403 1.05.768.357.6.837.994 1.428 1.168.438.13.84.127 1.271.035v1.58c-3.41-1.196-5.898-4.454-5.898-8.274 0-4.851 3.976-8.867 8.828-8.867 4.851 0 8.828 4.016 8.828 8.867 0 3.82-2.488 7.078-5.898 8.274z" fill="#fff"/></svg>