<svg width="20" height="20" fill="none" xmlns="http://www.w3.org/2000/svg"><path d="M2.93 20h14.14A2.933 2.933 0 0020 17.07V2.93A2.933 2.933 0 0017.07 0H2.93A2.933 2.933 0 000 2.93v14.14A2.933 2.933 0 002.93 20zM1.172 2.93c0-.97.788-1.758 1.758-1.758h14.14c.97 0 1.758.788 1.758 1.758v14.14a1.76 1.76 0 01-1.758 1.758H2.93a1.76 1.76 0 01-1.758-1.758V2.93z" fill="#fff"/><path d="M10 15.273A5.28 5.28 0 0015.273 10 5.28 5.28 0 0010 4.727 5.28 5.28 0 004.727 10 5.28 5.28 0 0010 15.273zm0-9.375A4.106 4.106 0 0114.102 10 4.106 4.106 0 0110 14.101 4.106 4.106 0 015.898 10 4.106 4.106 0 0110 5.898zM15.526 5.614c.958 0 1.737-.78 1.737-1.737 0-.957-.779-1.737-1.737-1.737-.957 0-1.736.78-1.736 1.737 0 .958.779 1.737 1.736 1.737zm0-2.316a.58.58 0 11-.001 1.16.58.58 0 01.001-1.16z" fill="#fff"/></svg>