<svg width="100" height="28" fill="none" xmlns="http://www.w3.org/2000/svg"><path fill-rule="evenodd" clip-rule="evenodd" d="M21.293 0H2.825C1.268 0 0 1.3 0 2.894v18.922c0 1.595 1.268 2.894 2.825 2.894h15.629l-.73-2.584 1.763 1.666 1.668 1.567L24.132 28V2.894C24.118 1.3 22.85 0 21.292 0zm-5.32 18.286s-.496-.608-.91-1.13c1.806-.522 2.495-1.666 2.495-1.666a7.821 7.821 0 01-1.585.833c-.69.297-1.35.48-1.998.607a9.419 9.419 0 01-3.57-.014 10.277 10.277 0 01-2.026-.607 7.975 7.975 0 01-1.006-.48c-.041-.029-.083-.043-.124-.071-.027-.014-.041-.028-.055-.028-.248-.141-.386-.24-.386-.24s.662 1.115 2.412 1.652c-.414.536-.924 1.157-.924 1.157-3.045-.098-4.203-2.131-4.203-2.131 0-4.505 1.985-8.162 1.985-8.162 1.984-1.51 3.858-1.468 3.858-1.468l.138.17c-2.48.72-3.61 1.835-3.61 1.835s.303-.17.813-.396c1.474-.663 2.646-.833 3.128-.89.083-.014.152-.027.235-.027.84-.114 1.791-.142 2.783-.029 1.31.156 2.715.55 4.149 1.342 0 0-1.09-1.06-3.432-1.78l.193-.225s1.888-.043 3.859 1.468c0 0 1.984 3.658 1.984 8.162 0-.015-1.157 2.019-4.203 2.118zm20.81-12.243h-4.575v5.267l3.046 2.81V9.01h1.626c1.034 0 1.543.508 1.543 1.327v3.911c0 .819-.482 1.37-1.543 1.37h-4.686v2.979h4.575c2.454.014 4.755-1.242 4.755-4.123v-4.208c.014-2.937-2.287-4.222-4.74-4.222zm23.98 8.43v-4.32c0-1.554 2.73-1.907 3.556-.354l2.522-1.044c-.992-2.232-2.798-2.881-4.3-2.881-2.453 0-4.878 1.454-4.878 4.278v4.32c0 2.853 2.425 4.28 4.823 4.28 1.544 0 3.39-.777 4.41-2.81l-2.7-1.271c-.663 1.737-3.433 1.313-3.433-.198zm-8.337-3.728c-.951-.211-1.586-.564-1.627-1.171.056-1.455 2.247-1.511 3.528-.114l2.026-1.595c-1.267-1.581-2.7-2.005-4.175-2.005-2.247 0-4.424 1.299-4.424 3.756 0 2.386 1.791 3.67 3.762 3.982 1.006.141 2.123.55 2.095 1.256-.083 1.342-2.784 1.271-4.01-.254l-1.957 1.878c1.143 1.511 2.7 2.274 4.161 2.274 2.247 0 4.741-1.328 4.838-3.756.138-3.065-2.04-3.841-4.218-4.25zm-9.234 7.837h3.087V6.043h-3.087v12.54zM95.246 6.043H90.67v5.267l3.046 2.81V9.01h1.626c1.034 0 1.543.508 1.543 1.327v3.911c0 .819-.482 1.37-1.543 1.37h-4.686v2.979h4.59c2.452.014 4.754-1.242 4.754-4.123v-4.208c0-2.937-2.302-4.222-4.754-4.222zm-22.45-.169c-2.537 0-5.059 1.412-5.059 4.307v4.278c0 2.866 2.536 4.306 5.086 4.306 2.535 0 5.058-1.44 5.058-4.306v-4.278c0-2.88-2.55-4.307-5.086-4.307zm1.983 8.585c0 .904-.992 1.37-1.97 1.37-.993 0-1.985-.438-1.985-1.37v-4.278c0-.918.965-1.413 1.93-1.413 1.006 0 2.025.438 2.025 1.413v4.278zm14.182-4.278c-.069-2.937-2.026-4.124-4.548-4.124H79.52v12.539h3.129v-3.982h.551l2.839 3.982h3.86l-3.336-4.306c1.474-.48 2.398-1.794 2.398-4.11zm-4.493 1.694h-1.819V9.009h1.819c1.943 0 1.943 2.866 0 2.866z" fill="#fff"/></svg>