<svg width="52" height="51" fill="none" xmlns="http://www.w3.org/2000/svg"><path d="M51.904 12.082a2.557 2.557 0 00-1.213-1.546 2.645 2.645 0 00-1.975-.256 2.595 2.595 0 00-1.578 1.19l-.433.74a.876.876 0 00-1.179.306l-2.2 3.68-.755-.425a.883.883 0 00-.66-.085.867.867 0 00-.527.4.842.842 0 00.32 1.156l.755.425-7.367 12.52-1.82 4.77-.866 1.588a2.51 2.51 0 00.139 2.754l-1.95 2.346-.546-1.342a1.73 1.73 0 00-1.472-1.06 1.743 1.743 0 00-1.622.821l-.312.519-.294-3.4a1.716 1.716 0 00-1.52-1.548 1.736 1.736 0 00-1.852 1.148l-2.131 6.273a.846.846 0 00.546 1.072.762.762 0 00.268.067.865.865 0 00.824-.578l2.123-6.272.303 3.45a1.71 1.71 0 001.336 1.515 1.747 1.747 0 001.88-.784l.32-.518.537 1.334c.228.563.744.964 1.355 1.053.61.09 1.223-.147 1.609-.62l2.02-2.506c.223.057.453.086.684.085a2.61 2.61 0 002.261-1.259l.867-1.42 3.302-3.935 7.444-12.673.754.425c.2.113.347.299.407.519.06.218.029.45-.087.645l-3.466 5.891a.836.836 0 00-.123.657.85.85 0 001.06.627.867.867 0 00.528-.4l3.466-5.89c.346-.587.44-1.284.26-1.938a2.558 2.558 0 00-1.213-1.548l-.754-.425 2.166-3.68a.841.841 0 00-.312-1.156l.434-.74a2.507 2.507 0 00.26-1.972zm-3.267.238a.864.864 0 01.53-.399.925.925 0 01.658.085c.2.112.347.3.407.518a.877.877 0 01-.087.646l-.433.74-1.508-.85.433-.74zM36.826 36.053l-.434-.247-1.282-.731 1.23-3.23 2.73 1.547-2.244 2.66zm-2.6 2.456a.84.84 0 01-.26-1.114l.433-.739 1.508.85-.433.73a.866.866 0 01-.563.406.881.881 0 01-.685-.133zm5.832-6.51l-2.998-1.7 6.932-11.782 2.999 1.7-6.933 11.781zm7.8-13.253l-2.999-1.7 1.733-2.94 2.999 1.7-1.733 2.94zM13.674 38.088l-3.067 3.001-1.837-1.802a.879.879 0 00-1.222 0 .842.842 0 000 1.207l1.837 1.802a1.75 1.75 0 001.222.493 1.75 1.75 0 001.23-.493l3.059-3.009a.838.838 0 00-.045-1.154.879.879 0 00-1.177-.045z" fill="#FFBB01"/><path d="M3.466 40.375c0 3.99 3.298 7.225 7.366 7.225s7.366-3.235 7.366-7.225c0-.47-.388-.85-.867-.85a.859.859 0 00-.866.85c0 3.051-2.522 5.525-5.633 5.525-3.11 0-5.633-2.474-5.633-5.525s2.522-5.525 5.633-5.525a5.656 5.656 0 013.38 1.105.878.878 0 001.213-.17.84.84 0 00-.173-1.19 7.486 7.486 0 00-7.714-.682c-2.496 1.224-4.072 3.726-4.072 6.462zM31.198 6.8c.478 0 .866-.38.866-.85s-.388-.85-.866-.85H8.666a.858.858 0 00-.867.85v3.4c0 .47.388.85.867.85h22.532c.478 0 .866-.38.866-.85s-.388-.85-.866-.85H9.533V6.8h21.665zM11.266 11.9a.858.858 0 00-.867.85c0 .47.388.85.867.85h17.332c.478 0 .866-.38.866-.85s-.388-.85-.866-.85H11.266zM33.797 17.85H14.732a.858.858 0 00-.866.85c0 .47.388.85.866.85h19.065c.479 0 .867-.38.867-.85s-.388-.85-.867-.85zM25.13 23.8c0-.47-.387-.85-.866-.85H6.932a.858.858 0 00-.867.85c0 .47.388.85.867.85h17.332c.479 0 .867-.38.867-.85zM33.797 22.95H27.73a.858.858 0 00-.866.85c0 .47.388.85.866.85h6.066c.478 0 .866-.38.866-.85s-.388-.85-.866-.85zM15.598 28.9c.479 0 .867-.38.867-.85s-.388-.85-.867-.85H6.932a.858.858 0 00-.867.85c0 .47.388.85.867.85h8.666zM19.065 28.9h6.066c.478 0 .866-.38.866-.85s-.388-.85-.866-.85h-6.066a.858.858 0 00-.866.85c0 .47.388.85.866.85z" fill="#FFBB01"/><path d="M38.997 39.1a.858.858 0 00-.867.85v8.5c0 .47-.388.85-.866.85H2.6a.858.858 0 01-.867-.85V2.55c0-.47.388-.85.867-.85h34.664c.478 0 .866.38.866.85v15.963c0 .47.388.85.867.85.478 0 .866-.38.866-.85V2.55c0-1.408-1.164-2.55-2.6-2.55H2.6C1.164 0 0 1.142 0 2.55v45.9C0 49.859 1.164 51 2.6 51h34.664c1.435 0 2.6-1.141 2.6-2.55v-8.5c0-.47-.389-.85-.867-.85z" fill="#FFBB01"/></svg>