<svg width="15" height="15" fill="none" xmlns="http://www.w3.org/2000/svg"><path d="M11.861 9.292c-.308-.32-.678-.49-1.072-.49-.39 0-.764.167-1.084.487l-1.002.997c-.082-.044-.165-.085-.244-.127-.114-.057-.222-.11-.314-.167-.938-.596-1.791-1.371-2.609-2.375-.396-.5-.663-.921-.856-1.348.26-.238.5-.485.736-.722l.266-.27c.666-.664.666-1.525 0-2.19l-.866-.864c-.098-.098-.2-.2-.295-.301-.19-.196-.39-.399-.596-.589-.307-.304-.675-.465-1.062-.465s-.76.161-1.078.465l-.006.006L.701 2.425c-.406.405-.637.9-.688 1.472-.076.925.197 1.786.406 2.35.513 1.383 1.28 2.665 2.425 4.04a14.916 14.916 0 004.968 3.883c.73.346 1.703.754 2.79.824.067.003.137.006.2.006.732 0 1.348-.263 1.83-.785.003-.006.009-.01.012-.016.165-.2.355-.38.555-.573.136-.13.276-.266.412-.408.314-.326.479-.706.479-1.096 0-.392-.168-.77-.488-1.086l-1.74-1.744zm1.135 3.334c-.003 0-.003.003 0 0-.124.133-.25.253-.387.386a8.317 8.317 0 00-.612.633c-.32.342-.697.503-1.192.503-.047 0-.098 0-.146-.003-.941-.06-1.816-.427-2.473-.74a14.08 14.08 0 01-4.68-3.66C2.427 8.444 1.704 7.24 1.225 5.949.93 5.16.822 4.546.87 3.967c.032-.37.174-.677.438-.94l1.08-1.08c.156-.145.32-.225.483-.225.2 0 .361.12.463.222l.009.01c.193.18.377.367.57.566l.302.307.865.865c.337.335.337.645 0 .981-.091.092-.18.184-.272.272-.267.273-.52.526-.796.773-.006.006-.013.01-.016.016-.273.272-.222.538-.165.718l.01.029c.225.544.542 1.057 1.024 1.668l.003.003c.875 1.077 1.798 1.916 2.815 2.558.13.083.264.15.39.212.114.057.222.111.314.168l.038.022c.108.054.21.08.314.08a.678.678 0 00.482-.219l1.084-1.083c.108-.107.28-.237.48-.237.196 0 .357.123.456.231l.006.006 1.747 1.745c.326.323.326.655.003.99zM8.107 3.568c.83.14 1.585.532 2.188 1.133a4.034 4.034 0 011.135 2.185.425.425 0 00.422.354c.025 0 .047-.003.072-.006a.428.428 0 00.352-.494 4.88 4.88 0 00-1.372-2.643 4.892 4.892 0 00-2.648-1.371.43.43 0 00-.494.348.423.423 0 00.345.494zM14.993 6.617a8.03 8.03 0 00-2.26-4.353A8.049 8.049 0 008.373.007a.426.426 0 10-.139.842c1.477.25 2.825.95 3.896 2.016a7.168 7.168 0 012.02 3.891.425.425 0 00.422.355c.025 0 .047-.003.073-.007a.42.42 0 00.348-.487z" fill="#949494"/></svg>