<svg width="52" height="51" fill="none" xmlns="http://www.w3.org/2000/svg"><path d="M50.26 36.346V34h.867a.873.873 0 00.633-.264.891.891 0 00.234-.586l-1.551-28.9C50.295 1.91 48.318.088 45.928.088c-2.39 0-4.367 1.823-4.515 4.162l-1.55 28.9a.892.892 0 00.233.63c.172.153.4.233.633.22h.866v2.346l-1.638 3.222a.836.836 0 000 .765l5.2 10.2a.734.734 0 00.182.246.876.876 0 00.355.195h.476a.87.87 0 00.356-.195.73.73 0 00.182-.247l5.2-10.2a.835.835 0 000-.764l-1.647-3.222zM41.639 32.3l.365-6.8h7.85l.408 6.8h-8.623zm1.508-28.007c0-1.507 1.246-2.73 2.782-2.73 1.537 0 2.782 1.223 2.782 2.73l1.048 19.55h-7.66l.095-1.7h4.827c.479 0 .866-.38.866-.85s-.387-.85-.866-.85h-4.74l.866-16.15zM48.528 34v1.7h-5.2V34h5.2zm-1.733 12.546V40.8h.866c.479 0 .867-.38.867-.85s-.388-.85-.867-.85h-3.466a.858.858 0 00-.867.85c0 .47.388.85.867.85h.867v5.746l-3.363-6.596L43 37.4h5.858l1.3 2.55-3.362 6.596zM29.462 11.05c.48 0 .867-.38.867-.85s-.388-.85-.867-.85H6.932a.858.858 0 00-.867.85v3.4c0 .47.388.85.867.85h22.53c.48 0 .867-.38.867-.85s-.388-.85-.867-.85H7.798v-1.7h21.664zM30.33 18.7c0-.47-.388-.85-.867-.85H10.4a.858.858 0 00-.867.85c0 .47.388.85.867.85h19.064c.479 0 .867-.38.867-.85zM5.199 22.95c0 .47.388.85.866.85H19.93c.479 0 .867-.38.867-.85s-.388-.85-.867-.85H6.065a.858.858 0 00-.866.85zM25.13 22.1a.858.858 0 00-.866.85c0 .47.388.85.867.85h3.465c.479 0 .867-.38.867-.85s-.388-.85-.867-.85h-3.465zM17.33 27.2c0-.47-.387-.85-.866-.85H6.065a.858.858 0 00-.866.85c0 .47.388.85.866.85h10.4c.478 0 .866-.38.866-.85zM16.464 31.45c0-.47-.388-.85-.866-.85H6.065a.858.858 0 00-.866.85c0 .47.388.85.866.85h9.533c.478 0 .866-.38.866-.85zM6.065 34.85a.858.858 0 00-.866.85c0 .47.388.85.866.85h6.065c.479 0 .867-.38.867-.85s-.388-.85-.867-.85H6.065z" fill="#FFBB01"/><path d="M33.796 0H2.6C1.164 0 0 1.142 0 2.55v39.1c0 1.408 1.164 2.55 2.6 2.55H17.33c.479 0 .867-.38.867-.85s-.388-.85-.867-.85H2.6a.858.858 0 01-.867-.85v-34h32.93v34c0 .47-.388.85-.867.85h-2.6a.858.858 0 00-.866.85c0 .47.388.85.866.85h2.6c1.436 0 2.6-1.142 2.6-2.55V2.55c0-1.408-1.164-2.55-2.6-2.55zM1.733 5.95v-3.4c0-.47.388-.85.867-.85h31.196c.479 0 .867.38.867.85v3.4H1.733z" fill="#FFBB01"/><path d="M24.264 31.45c-1.436 0-2.6 1.142-2.6 2.55s1.164 2.55 2.6 2.55c1.435 0 2.599-1.142 2.599-2.55s-1.164-2.55-2.6-2.55zm0 3.4a.858.858 0 01-.867-.85c0-.47.388-.85.867-.85.478 0 .866.38.866.85s-.388.85-.866.85z" fill="#FFBB01"/><path d="M31.197 34a2.544 2.544 0 00-1.387-2.253 2.517 2.517 0 00-.646-2.553 2.636 2.636 0 00-2.604-.634 2.607 2.607 0 00-2.296-1.355c-.962 0-1.845.522-2.296 1.355a2.636 2.636 0 00-2.604.634c-.68.668-.93 1.65-.646 2.553A2.543 2.543 0 0017.337 34c0 .944.53 1.81 1.381 2.252a2.515 2.515 0 00.641 2.55c.17.166.362.306.572.417v10.93a.85.85 0 00.537.783.879.879 0 00.945-.179l2.85-2.804 2.852 2.804c.163.16.385.248.615.247a.737.737 0 00.33-.068.85.85 0 00.537-.782V39.227c.21-.11.403-.25.572-.416a2.515 2.515 0 00.64-2.55A2.544 2.544 0 0031.197 34zm-6.318 12.146a.874.874 0 00-1.23 0l-1.985 1.955v-8.584l.304-.077a2.606 2.606 0 002.296 1.355c.962 0 1.845-.521 2.296-1.355l.304.077V48.1l-1.985-1.955zm3.718-11.296h-.148a.867.867 0 00-.806.527.839.839 0 00.191.926l.104.103a.839.839 0 010 1.198.826.826 0 01-.347.213h-.13a.877.877 0 01-.745-.239l-.104-.102a.88.88 0 00-.947-.186.85.85 0 00-.534.79v.17c0 .47-.389.85-.867.85a.858.858 0 01-.867-.85v-.145a.85.85 0 00-.866-.85.876.876 0 00-.615.247l-.105.102a.876.876 0 01-.745.238h-.13a.817.817 0 01-.346-.213.839.839 0 010-1.198l.113-.102a.838.838 0 00.19-.927.866.866 0 00-.806-.526h-.156a.859.859 0 01-.867-.85c0-.47.389-.85.867-.85h.147a.868.868 0 00.806-.528.84.84 0 00-.19-.926l-.104-.102a.84.84 0 01-.005-1.203.879.879 0 011.226-.004l.105.11c.247.245.62.319.944.187a.85.85 0 00.537-.79v-.17c0-.47.388-.85.867-.85s.867.38.867.85v.144a.85.85 0 00.537.791c.324.13.697.057.944-.187l.104-.102a.88.88 0 011.227-.004.84.84 0 01.004 1.202l-.113.102a.839.839 0 00-.19.927c.134.32.453.529.806.527h.147c.478 0 .866.38.866.85s-.388.85-.866.85z" fill="#FFBB01"/></svg>