<svg width="52" height="51" fill="none" xmlns="http://www.w3.org/2000/svg"><path d="M51.133 25.068h-19.82a.866.866 0 100 1.729h18.954v8.644h-4.334V29.39a.866.866 0 00-1.733 0v6.05H20.8v-8.643H26a.866.866 0 100-1.73h-6.067a.866.866 0 00-.866.865v10.373c0 .477.388.865.866.865h7.8v1.728h-7.8a.866.866 0 00-.866.865v6.05h-2.6v-.864a.866.866 0 00-.867-.864H13v-4.322a.866.866 0 00-1.733 0v5.186c0 .478.388.865.866.865h2.6v1.728H6.067v-1.728h2.6a.866.866 0 00.866-.865v-5.186a.866.866 0 00-1.733 0v4.322H5.2a.866.866 0 00-.867.864v.865H.867a.866.866 0 100 1.728h3.466v.865c0 .477.388.864.867.864h10.4a.866.866 0 00.867-.864v-.865h2.6v2.594c0 .477.388.864.866.864h31.2a.866.866 0 00.867-.864V39.763a.866.866 0 00-.867-.865h-7.8V37.17h7.8a.866.866 0 00.867-.865V25.932a.866.866 0 00-.867-.864zm-.866 24.203H20.8v-8.644h23.4v6.051a.866.866 0 001.733 0v-6.05h4.334v8.643zM41.6 38.898H29.467V37.17H41.6v1.728z" fill="#FFBB01"/><path d="M26 28.525a2.597 2.597 0 00-2.6 2.594 2.596 2.596 0 002.6 2.593c1.435 0 2.6-1.16 2.6-2.593a2.597 2.597 0 00-2.6-2.594zm0 3.458a.865.865 0 11-.002-1.731.865.865 0 01.002 1.731zM31.2 33.712a.865.865 0 00.867-.865V29.39a.865.865 0 00-1.733 0v3.457c0 .478.387.865.866.865zM35.533 32.847V29.39a.866.866 0 00-1.733 0v3.457a.865.865 0 001.733 0zM39 32.847V29.39a.866.866 0 00-1.733 0v3.457a.865.865 0 001.733 0zM42.466 32.847V29.39a.865.865 0 00-1.733 0v3.457a.866.866 0 001.733 0zM27.733 44.085a.865.865 0 00-.867.864.866.866 0 11-.866-.864.866.866 0 100-1.729 2.597 2.597 0 00-2.6 2.593 2.596 2.596 0 002.6 2.593c1.435 0 2.6-1.16 2.6-2.593a.866.866 0 00-.867-.864zM31.2 42.356a.866.866 0 00-.866.864v3.458a.866.866 0 001.733 0V43.22a.865.865 0 00-.867-.864zM34.667 42.356a.865.865 0 00-.867.864v3.458a.865.865 0 001.733 0V43.22a.866.866 0 00-.866-.864zM38.133 42.356a.865.865 0 00-.866.864v3.458a.865.865 0 001.733 0V43.22a.866.866 0 00-.867-.864zM41.6 42.356a.866.866 0 00-.867.864v3.458a.866.866 0 001.733 0V43.22a.865.865 0 00-.866-.864zM6.569 30.954c.115.051.239.077.364.078a.865.865 0 00.364-1.642 9.501 9.501 0 01-5.343-10.67 9.528 9.528 0 0111.912-7.12.867.867 0 001.049-.518A14.646 14.646 0 0128.6 1.729c6.905.034 12.872 4.82 14.386 11.54.078.346.36.61.71.665a7.786 7.786 0 016.57 7.676 6.977 6.977 0 01-.052.752.864.864 0 00.772.977.866.866 0 00.953-.786c.038-.313.058-.628.06-.943a9.462 9.462 0 00-7.453-9.275C42.643 5.097 36.102.037 28.6 0a16.374 16.374 0 00-15.037 9.75 10.909 10.909 0 00-2.297-.241C5.975 9.514 1.4 13.192.271 18.348a11.23 11.23 0 006.298 12.607z" fill="#FFBB01"/><path d="M13.867 31.646a.64.64 0 00.216 0 10.97 10.97 0 002.817-1.15.864.864 0 00-.867-1.495 9.562 9.562 0 01-2.383.977.872.872 0 10.217 1.729v-.06z" fill="#FFBB01"/><path d="M10.4 37.17a.866.866 0 00.866-.865v-13.57l1.88 2.809c.16.24.43.387.72.388.17.002.337-.05.476-.147a.863.863 0 00.243-1.192l-3.466-5.187-.044-.043a.867.867 0 00-1.351 0l-.044.043-3.467 5.187a.863.863 0 00.285 1.129.869.869 0 001.154-.178l1.88-2.81v13.571c0 .477.389.864.867.864zM32.543 15.706a.868.868 0 00-1.196.243l-1.88 2.809V8.644a.866.866 0 00-1.734 0v10.114l-1.88-2.81a.867.867 0 00-1.552.048.864.864 0 00.113.903l3.467 5.187a.867.867 0 001.438 0l3.467-5.186a.863.863 0 00-.243-1.194z" fill="#FFBB01"/></svg>