<svg width="20" height="16" fill="none" xmlns="http://www.w3.org/2000/svg"><path d="M20 2.137c-1.258.056-1.23.052-1.373.063l.745-2.08s-2.325.837-2.915.987c-1.549-1.36-3.85-1.421-5.496-.432-1.347.81-2.07 2.2-1.83 3.825C6.51 4.144 4.3 2.93 2.556.88L2.003.234l-.412.74a4.384 4.384 0 00-.487 3.01c.084.414.229.807.428 1.176l-.473-.18-.056.774c-.057.785.21 1.702.716 2.452.142.21.325.443.557.672l-.245-.037.299.886a4.337 4.337 0 002.264 2.564c-1.056.439-1.909.718-3.311 1.169L0 13.87l1.185.633c.452.242 2.048 1.048 3.626 1.29 3.506.538 7.454.1 10.112-2.24 2.239-1.97 2.973-4.774 2.82-7.69-.022-.442.101-.864.349-1.187.496-.648 1.905-2.536 1.908-2.54zM17.155 3.99a2.921 2.921 0 00-.58 1.93c.153 2.943-.666 5.225-2.435 6.783-2.068 1.82-5.402 2.534-9.148 1.96-.678-.104-1.38-.337-1.96-.57 1.176-.395 2.084-.748 3.55-1.426l2.047-.947-2.26-.141c-1.082-.068-1.984-.58-2.538-1.413.294-.017.578-.063.86-.14l2.156-.587-2.173-.52c-1.057-.253-1.658-.87-1.978-1.345a3.205 3.205 0 01-.428-.924c.218.057.472.098.882.138l2.011.194-1.594-1.215c-1.148-.875-1.608-2.19-1.27-3.455 3.583 3.633 7.791 3.36 8.215 3.456-.093-.885-.096-.887-.12-.971-.543-1.875.646-2.826 1.182-3.148 1.12-.673 2.898-.775 4.13.334.265.239.625.333.962.251.302-.073.55-.15.793-.235l-.506 1.41h.645l-.443.58z" fill="#fff"/></svg>